<?xml version="1.0" encoding="UTF-8"?>
<svg id="_Слой_1" data-name="Слой 1" xmlns="http://www.w3.org/2000/svg" viewBox="0 0 458.1 250">
  <defs>
    <style>
      .cls-1 {
        fill: #fff;
      }

      .cls-2 {
        fill: aqua;
      }

      .cls-3 {
        fill: blue;
      }

      .cls-4 {
        font-family: CenturyGothic-Bold, 'Century Gothic';
        font-size: 60px;
        font-weight: 700;
      }

      .cls-5 {
        fill: lime;
      }

      .cls-6 {
        fill: #f0f;
      }

      .cls-7 {
        fill: red;
      }

      .cls-8 {
        fill: #ff0;
      }
    </style>
  </defs>
  <polygon class="cls-7" points="125.1 0 .1 250 250.1 250 125.1 0"/>
  <polygon class="cls-5" points="112.5 25 0 250 225 250 112.5 25"/>
  <polygon class="cls-3" points="100.1 50 .1 250 200.1 250 100.1 50"/>
  <polygon points="87.6 75 .1 250 175.1 250 87.6 75"/>
  <polygon class="cls-1" points="87.1 94 12.1 244 162.1 244 87.1 94"/>
  <path class="cls-8" d="m140.86,131.51c-2.76,3.49-3.48,9.04-3.48,9.04,0,0-.28,13.5-.28,13.98s.07,11.11.07,11.11l.5,3.37c2,10.19,8.62,15.85,20.03,17.86h10.82l-27.67-55.35Z"/>
  <path class="cls-6" d="m140.86,131.51c6.24-10.51,19.65-11.16,19.4-10.51l33.34,66h-25"/>
  <path class="cls-2" d="m160.25,121h25.85l30,61c-5.23,4.53-12.91,5.96-22.5,5"/>
  <path class="cls-6" d="m127.98,55.96c-1.9,3.26-2.89,6.74-2.88,10.45-.18,16.25-.66,28.16.67,32.37s5.36,12.14,15.09,14.68c3.63.78,10.04.55,16.14.54l-29.02-58.04Z"/>
  <path class="cls-2" d="m127.98,55.96c4.12-6.96,13.12-10.96,20.12-9.96l33.78,67.57c-2.81.77-14.47.53-24.88.43l-29.02-58.04Z"/>
  <text class="cls-4" transform="translate(140.86 175.9)"><tspan x="0" y="0">Biographic</tspan></text>
  <text class="cls-4" transform="translate(127.91 102.55)"><tspan x="0" y="0">National</tspan></text>
</svg>